<svg xmlns="http://www.w3.org/2000/svg" viewBox="0 0 800 800" role="img"><title>GeneticFrames DNA artifact</title><defs><radialGradient id="bg"><stop stop-color="hsl(229.1,35.0%,7.0%)"/><stop offset="1" stop-color="#020307"/></radialGradient></defs><rect width="800" height="800" fill="url(#bg)"/><polygon points="671.75,400.00 682.67,475.74 638.10,537.47 605.01,605.01 539.39,641.43 472.68,671.25 400.00,686.54 328.87,665.47 254.15,652.62 207.84,592.16 146.57,546.32 134.43,471.16 110.07,400.00 130.72,327.85 156.81,259.59 197.38,197.38 262.58,161.99 324.50,118.24 400.00,128.25 475.74,117.33 537.47,161.90 605.01,194.99 641.43,260.61 671.25,327.32" fill="none" stroke="hsl(254.1,82.6%,45.2%)" stroke-width="3"/><polygon points="508.25,400.00 514.37,369.35 488.47,348.92 482.29,317.71 455.14,304.49 428.02,295.44 400.00,285.66 371.98,295.44 343.84,302.73 323.46,323.46 297.46,340.80 301.32,373.56 283.62,400.00 293.48,428.54 306.25,454.12 319.15,480.85 345.87,493.75 370.93,508.49 400.00,508.25 430.65,514.37 451.08,488.47 482.29,482.29 495.51,455.14 504.56,428.02" fill="none" stroke="hsl(303.4,72.0%,54.0%)" stroke-width="2"/><circle cx="665.00" cy="400.00" r="88.14" fill="none" stroke="hsl(63.1,82.0%,62.0%)" stroke-width="2.68" opacity="0.670"/><text x="665.00" y="400.00" fill="#fff" font-size="9" text-anchor="middle">CT</text><circle cx="629.50" cy="532.50" r="83.04" fill="none" stroke="hsl(63.1,82.0%,62.0%)" stroke-width="2.32" opacity="0.581"/><text x="629.50" y="532.50" fill="#fff" font-size="9" text-anchor="middle">TC</text><circle cx="532.50" cy="629.50" r="75.25" fill="none" stroke="hsl(63.1,82.0%,62.0%)" stroke-width="1.78" opacity="0.446"/><text x="532.50" y="629.50" fill="#fff" font-size="9" text-anchor="middle">GC</text><circle cx="400.00" cy="665.00" r="73.60" fill="none" stroke="hsl(63.1,82.0%,62.0%)" stroke-width="1.67" opacity="0.417"/><text x="400.00" y="665.00" fill="#fff" font-size="9" text-anchor="middle">CC</text><circle cx="267.50" cy="629.50" r="72.10" fill="none" stroke="hsl(63.1,82.0%,62.0%)" stroke-width="1.56" opacity="0.391"/><text x="267.50" y="629.50" fill="#fff" font-size="9" text-anchor="middle">TG</text><circle cx="170.50" cy="532.50" r="71.95" fill="none" stroke="hsl(63.1,82.0%,62.0%)" stroke-width="1.55" opacity="0.388"/><text x="170.50" y="532.50" fill="#fff" font-size="9" text-anchor="middle">GG</text><circle cx="135.00" cy="400.00" r="70.45" fill="none" stroke="hsl(63.1,82.0%,62.0%)" stroke-width="1.45" opacity="0.362"/><text x="135.00" y="400.00" fill="#fff" font-size="9" text-anchor="middle">AT</text><circle cx="170.50" cy="267.50" r="70.45" fill="none" stroke="hsl(63.1,82.0%,62.0%)" stroke-width="1.45" opacity="0.362"/><text x="170.50" y="267.50" fill="#fff" font-size="9" text-anchor="middle">TA</text><circle cx="267.50" cy="170.50" r="68.95" fill="none" stroke="hsl(63.1,82.0%,62.0%)" stroke-width="1.34" opacity="0.336"/><text x="267.50" y="170.50" fill="#fff" font-size="9" text-anchor="middle">TT</text><circle cx="400.00" cy="135.00" r="68.80" fill="none" stroke="hsl(63.1,82.0%,62.0%)" stroke-width="1.33" opacity="0.333"/><text x="400.00" y="135.00" fill="#fff" font-size="9" text-anchor="middle">CG</text><circle cx="532.50" cy="170.50" r="68.50" fill="none" stroke="hsl(63.1,82.0%,62.0%)" stroke-width="1.31" opacity="0.328"/><text x="532.50" y="170.50" fill="#fff" font-size="9" text-anchor="middle">CA</text><circle cx="629.50" cy="267.50" r="67.15" fill="none" stroke="hsl(63.1,82.0%,62.0%)" stroke-width="1.22" opacity="0.305"/><text x="629.50" y="267.50" fill="#fff" font-size="9" text-anchor="middle">AC</text><circle cx="726.14" cy="462.10" r="2.2" fill="hsl(63.1,82.0%,62.0%)"/><circle cx="710.73" cy="514.06" r="2.2" fill="hsl(63.1,82.0%,62.0%)"/><circle cx="693.69" cy="563.22" r="2.2" fill="hsl(63.1,82.0%,62.0%)"/><circle cx="638.10" cy="634.23" r="2.2" fill="hsl(63.1,82.0%,62.0%)"/><circle cx="596.17" cy="669.08" r="2.2" fill="hsl(63.1,82.0%,62.0%)"/><circle cx="551.24" cy="694.43" r="2.2" fill="hsl(63.1,82.0%,62.0%)"/><circle cx="468.24" cy="729.00" r="2.2" fill="hsl(63.1,82.0%,62.0%)"/><circle cx="413.70" cy="734.72" r="2.2" fill="hsl(63.1,82.0%,62.0%)"/><circle cx="361.94" cy="730.82" r="2.2" fill="hsl(63.1,82.0%,62.0%)"/><circle cx="275.84" cy="706.83" r="2.2" fill="hsl(63.1,82.0%,62.0%)"/><circle cx="228.04" cy="681.65" r="2.2" fill="hsl(63.1,82.0%,62.0%)"/><circle cx="183.27" cy="655.45" r="2.2" fill="hsl(63.1,82.0%,62.0%)"/><circle cx="124.64" cy="587.26" r="2.2" fill="hsl(63.1,82.0%,62.0%)"/><circle cx="98.72" cy="539.49" r="2.2" fill="hsl(63.1,82.0%,62.0%)"/><circle cx="82.68" cy="490.61" r="2.2" fill="hsl(63.1,82.0%,62.0%)"/><circle cx="65.01" cy="402.74" r="2.2" fill="hsl(63.1,82.0%,62.0%)"/><circle cx="70.03" cy="348.29" r="2.2" fill="hsl(63.1,82.0%,62.0%)"/><circle cx="83.92" cy="298.44" r="2.2" fill="hsl(63.1,82.0%,62.0%)"/><circle cx="124.12" cy="218.91" r="2.2" fill="hsl(63.1,82.0%,62.0%)"/><circle cx="152.89" cy="172.33" r="2.2" fill="hsl(63.1,82.0%,62.0%)"/><circle cx="192.37" cy="138.38" r="2.2" fill="hsl(63.1,82.0%,62.0%)"/><circle cx="270.44" cy="94.32" r="2.2" fill="hsl(63.1,82.0%,62.0%)"/><circle cx="322.20" cy="78.27" r="2.2" fill="hsl(63.1,82.0%,62.0%)"/><circle cx="372.54" cy="65.12" r="2.2" fill="hsl(63.1,82.0%,62.0%)"/><circle cx="462.48" cy="71.90" r="2.2" fill="hsl(63.1,82.0%,62.0%)"/><circle cx="514.75" cy="87.39" r="2.2" fill="hsl(63.1,82.0%,62.0%)"/><circle cx="560.79" cy="110.68" r="2.2" fill="hsl(63.1,82.0%,62.0%)"/><circle cx="635.64" cy="160.48" r="2.2" fill="hsl(63.1,82.0%,62.0%)"/><circle cx="670.70" cy="202.65" r="2.2" fill="hsl(63.1,82.0%,62.0%)"/><circle cx="696.21" cy="247.85" r="2.2" fill="hsl(63.1,82.0%,62.0%)"/><circle cx="724.10" cy="332.77" r="2.2" fill="hsl(63.1,82.0%,62.0%)"/><circle cx="729.72" cy="386.50" r="2.2" fill="hsl(63.1,82.0%,62.0%)"/><circle cx="730.00" cy="400.00" r="2.2" fill="hsl(303.4,72.0%,54.0%)"/><circle cx="733.39" cy="432.84" r="2.2" fill="hsl(303.4,72.0%,54.0%)"/><circle cx="722.05" cy="480.67" r="2.2" fill="hsl(303.4,72.0%,54.0%)"/><circle cx="695.66" cy="548.82" r="2.2" fill="hsl(303.4,72.0%,54.0%)"/><circle cx="676.05" cy="584.45" r="2.2" fill="hsl(303.4,72.0%,54.0%)"/><circle cx="655.09" cy="609.35" r="2.2" fill="hsl(303.4,72.0%,54.0%)"/><circle cx="624.30" cy="647.48" r="2.2" fill="hsl(303.4,72.0%,54.0%)"/><circle cx="564.14" cy="689.74" r="2.2" fill="hsl(303.4,72.0%,54.0%)"/><circle cx="527.82" cy="708.58" r="2.2" fill="hsl(303.4,72.0%,54.0%)"/><circle cx="496.37" cy="717.70" r="2.2" fill="hsl(303.4,72.0%,54.0%)"/><circle cx="449.30" cy="732.36" r="2.2" fill="hsl(303.4,72.0%,54.0%)"/><circle cx="375.36" cy="734.09" r="2.2" fill="hsl(303.4,72.0%,54.0%)"/><circle cx="334.45" cy="729.54" r="2.2" fill="hsl(303.4,72.0%,54.0%)"/><circle cx="303.04" cy="719.62" r="2.2" fill="hsl(303.4,72.0%,54.0%)"/><circle cx="258.48" cy="699.22" r="2.2" fill="hsl(303.4,72.0%,54.0%)"/><circle cx="196.97" cy="660.15" r="2.2" fill="hsl(303.4,72.0%,54.0%)"/><circle cx="165.95" cy="634.05" r="2.2" fill="hsl(303.4,72.0%,54.0%)"/><circle cx="140.27" cy="613.16" r="2.2" fill="hsl(303.4,72.0%,54.0%)"/><circle cx="114.38" cy="571.20" r="2.2" fill="hsl(303.4,72.0%,54.0%)"/><circle cx="84.76" cy="504.14" r="2.2" fill="hsl(303.4,72.0%,54.0%)"/><circle cx="73.40" cy="464.97" r="2.2" fill="hsl(303.4,72.0%,54.0%)"/><circle cx="70.59" cy="432.44" r="2.2" fill="hsl(303.4,72.0%,54.0%)"/><circle cx="65.40" cy="383.56" r="2.2" fill="hsl(303.4,72.0%,54.0%)"/><circle cx="78.10" cy="310.92" r="2.2" fill="hsl(303.4,72.0%,54.0%)"/><circle cx="90.50" cy="271.80" r="2.2" fill="hsl(303.4,72.0%,54.0%)"/><circle cx="106.32" cy="243.02" r="2.2" fill="hsl(303.4,72.0%,54.0%)"/><circle cx="134.94" cy="203.42" r="2.2" fill="hsl(303.4,72.0%,54.0%)"/><circle cx="180.53" cy="145.58" r="2.2" fill="hsl(303.4,72.0%,54.0%)"/><circle cx="216.66" cy="125.62" r="2.2" fill="hsl(303.4,72.0%,54.0%)"/><circle cx="242.08" cy="104.56" r="2.2" fill="hsl(303.4,72.0%,54.0%)"/><circle cx="288.15" cy="87.41" r="2.2" fill="hsl(303.4,72.0%,54.0%)"/><circle cx="359.48" cy="71.49" r="2.2" fill="hsl(303.4,72.0%,54.0%)"/><circle cx="400.00" cy="68.00" r="2.2" fill="hsl(303.4,72.0%,54.0%)"/><circle cx="432.35" cy="71.59" r="2.2" fill="hsl(303.4,72.0%,54.0%)"/><circle cx="481.16" cy="76.01" r="2.2" fill="hsl(303.4,72.0%,54.0%)"/><circle cx="549.72" cy="102.56" r="2.2" fill="hsl(303.4,72.0%,54.0%)"/><circle cx="585.56" cy="122.29" r="2.2" fill="hsl(303.4,72.0%,54.0%)"/><circle cx="610.62" cy="143.36" r="2.2" fill="hsl(303.4,72.0%,54.0%)"/><circle cx="648.96" cy="174.36" r="2.2" fill="hsl(303.4,72.0%,54.0%)"/><circle cx="691.48" cy="234.88" r="2.2" fill="hsl(303.4,72.0%,54.0%)"/><circle cx="710.42" cy="271.42" r="2.2" fill="hsl(303.4,72.0%,54.0%)"/><circle cx="719.62" cy="303.04" r="2.2" fill="hsl(303.4,72.0%,54.0%)"/><circle cx="727.42" cy="351.43" r="2.2" fill="hsl(303.4,72.0%,54.0%)"/><text x="24" y="758" fill="#aab" font-family="monospace" font-size="11">GFDP v2.0.0 | fragment:2839cd68b8450c5a9d76</text><text x="24" y="782" fill="#fff" font-size="15">algorithmic rarity 16.0 · balanced</text></svg>